<?xml version="1.0" encoding="utf-8"?>
<!-- Generator: Adobe Illustrator 24.0.3, SVG Export Plug-In . SVG Version: 6.00 Build 0)  -->
<svg version="1.1" id="レイヤー_1" xmlns="http://www.w3.org/2000/svg" xmlns:xlink="http://www.w3.org/1999/xlink" x="0px"
	 y="0px" viewBox="0 0 1480 1570.9" style="enable-background:new 0 0 1480 1570.9;" xml:space="preserve">
<style type="text/css">
	.st0{fill:none;stroke:#000000;stroke-width:5;stroke-linecap:round;stroke-linejoin:round;}
</style>
<g>
	<path class="st0" d="M796.1,1028.4h-99.1c-7.7,0-14-6.3-14-14v-66.4c0-7.7,6.3-14,14-14h99.1c7.7,0,14,6.3,14,14v66.4
		C810.1,1022.1,803.8,1028.4,796.1,1028.4z"/>
	<circle class="st0" cx="708.9" cy="960.1" r="7.8"/>
	<path class="st0" d="M809.5,1007.5l-36.9-36.9c-2.5-2.5-6.6-2.5-9.1,0l-29.7,30.3l-12.3-12.3c-2.5-2.5-6.6-2.5-9.1,0l-29.1,29.1"/>
</g>
<g>
	<path d="M674.5,1080l-10.9-16.6v16.6H660v-23.6h3.3l10.9,16.5v-16.5h3.6v23.6H674.5z"/>
	<path d="M701.1,1077.6c-1.6,1.6-3.7,2.5-6.2,2.5c-2.5,0-4.6-0.9-6.2-2.5c-2.3-2.3-2.3-4.9-2.3-9.5s0-7.1,2.3-9.5
		c1.6-1.6,3.7-2.5,6.2-2.5c2.5,0,4.6,0.9,6.2,2.5c2.3,2.3,2.3,4.9,2.3,9.5S703.4,1075.3,701.1,1077.6z M698.4,1060.9
		c-0.8-0.9-2.1-1.5-3.5-1.5c-1.4,0-2.7,0.6-3.5,1.5c-1.2,1.3-1.4,2.6-1.4,7.3s0.2,6.1,1.4,7.3c0.8,0.9,2.1,1.5,3.5,1.5
		c1.4,0,2.7-0.6,3.5-1.5c1.2-1.3,1.4-2.6,1.4-7.3S699.5,1062.1,698.4,1060.9z"/>
	<path d="M723.2,1080v-23.6h3.6v23.6H723.2z"/>
	<path d="M753.4,1080v-15.8l-5.4,11.5h-2.6l-5.6-11.5v15.8h-3.6v-23.6h3.6l6.9,14.7l6.8-14.7h3.6v23.6H753.4z"/>
	<path d="M780,1080l-1.6-4.7H769l-1.6,4.7h-3.8l8.6-23.6h2.9l8.6,23.6H780z M773.8,1061.7l-3.7,10.5h7.2L773.8,1061.7z"/>
	<path d="M804.2,1077.5c-1.8,1.9-4,2.7-6.5,2.7c-2.4,0-4.6-0.9-6.2-2.5c-2.3-2.3-2.3-4.9-2.3-9.5s0-7.1,2.3-9.5
		c1.6-1.6,3.7-2.5,6.2-2.5c5,0,7.9,3.3,8.6,7.3h-3.6c-0.6-2.6-2.3-4.1-5-4.1c-1.4,0-2.6,0.6-3.5,1.5c-1.2,1.3-1.4,2.6-1.4,7.3
		s0.3,6.1,1.4,7.3c0.8,0.9,2.1,1.4,3.5,1.4c1.6,0,2.9-0.6,3.8-1.7c0.9-1,1.2-2.2,1.2-3.7v-1.3h-5v-3h8.6v3.6
		C806.3,1073.9,805.8,1075.8,804.2,1077.5z"/>
	<path d="M814.9,1080v-23.6h15.1v3.2h-11.5v6.9h9.8v3.2h-9.8v7.1h11.5v3.2H814.9z"/>
</g>
</svg>
